<svg xmlns="http://www.w3.org/2000/svg" xmlns:svg="http://www.w3.org/2000/svg" xmlns:xlink="http://www.w3.org/1999/xlink" id="svg8" width="464.091" height="464.091" version="1.1" viewBox="0 0 122.791 122.791"><defs id="defs2"><linearGradient id="linearGradient1066"><stop style="stop-color:#6f8a91;stop-opacity:1" id="stop1062" offset="0"/><stop style="stop-color:#6f8a91;stop-opacity:0" id="stop1064" offset="1"/></linearGradient><linearGradient id="linearGradient4555"><stop style="stop-color:#a4b5b9;stop-opacity:1" id="stop4551" offset="0"/><stop style="stop-color:#8ba1a6;stop-opacity:1" id="stop4553" offset="1"/></linearGradient><linearGradient id="linearGradient1068" x1="145.002" x2="683.824" y1="321.476" y2="482.696" gradientTransform="scale(0.26458334)" gradientUnits="userSpaceOnUse" xlink:href="#linearGradient1066"/><linearGradient id="linearGradient837" x1="98.373" x2="132.226" y1="80.037" y2="124.808" gradientTransform="translate(0.21652862,-1.4950989)" gradientUnits="userSpaceOnUse" xlink:href="#linearGradient4555"/><linearGradient id="linearGradient842" x1="26.03" x2="148.821" y1="31.875" y2="154.666" gradientTransform="translate(3.0621348)" gradientUnits="userSpaceOnUse" xlink:href="#linearGradient4555"/></defs><metadata id="metadata5"/><g id="layer1" transform="translate(53.98708,-31.875429)"><path id="path1014" d="m 130.43648,59.620133 -74.572192,3.962548 -7.597984,42.012419 10.291879,10.29188 -16.295647,2.88458 35.894448,35.89445 H 154.94506 V 84.128715 Z" style="fill:none;fill-opacity:1;stroke:none;stroke-width:.26458332px;stroke-linecap:butt;stroke-linejoin:miter;stroke-opacity:1"/><g id="g888" transform="translate(-83.079173)"><rect id="rect834" width="122.791" height="122.791" x="29.092" y="31.875" style="opacity:1;fill:url(#linearGradient842);fill-opacity:1;stroke:none;stroke-width:6.35238171;stroke-linecap:square;stroke-linejoin:round;stroke-miterlimit:4;stroke-dasharray:none;stroke-opacity:1;paint-order:markers fill stroke"/><path id="path1009" d="m 130.43647,59.61999 -74.572189,3.962548 -7.597988,42.012422 10.29188,10.29188 -16.295648,2.88458 35.89445,35.89445 H 151.88271 V 81.066226 Z" style="fill:url(#linearGradient1068);fill-opacity:1;stroke:none;stroke-width:.26458332px;stroke-linecap:butt;stroke-linejoin:miter;stroke-opacity:1"/><g id="g877"><g id="g865"><path style="opacity:1;fill:#fff;fill-opacity:1;stroke:none;stroke-width:8.24230289;stroke-linecap:square;stroke-linejoin:miter;stroke-miterlimit:4;stroke-dasharray:none;stroke-opacity:1;paint-order:markers fill stroke" id="path1016" d="m 55.14522,57.599343 c -3.811016,0 -6.878886,3.518771 -6.878886,7.890732 V 105.59529 H 58.610348 V 67.196961 h 63.754312 v 38.398329 h 10.34401 V 65.490075 c 0,-4.371961 -3.06787,-7.890732 -6.87889,-7.890732 z"/><path style="opacity:1;fill:#fff;fill-opacity:1;stroke:none;stroke-width:8.42327976;stroke-linejoin:bevel;stroke-miterlimit:3.20000005;stroke-dasharray:none;stroke-opacity:1" id="path1018" d="m 39.826996,110.15428 v 2.68424 c 0,4.48975 3.421591,8.10409 7.671187,8.10409 h 85.979207 c 4.2496,0 7.67061,-3.61434 7.67061,-8.10409 v -2.68424 z"/></g><g id="g869"><rect style="opacity:1;fill:#fff;fill-opacity:1;stroke:none;stroke-width:7.00793839;stroke-linecap:square;stroke-linejoin:round;stroke-miterlimit:4;stroke-dasharray:none;stroke-opacity:1" id="rect1020" width="41.864" height="53.648" x="96.424" y="75.294" ry="4.765"/><rect style="opacity:1;fill:url(#linearGradient837);fill-opacity:1;stroke:none;stroke-width:5.28829765;stroke-linecap:square;stroke-linejoin:round;stroke-miterlimit:4;stroke-dasharray:none;stroke-opacity:1" id="rect1022" width="30.172" height="42.389" x="102.271" y="80.924" ry="0"/></g></g></g></g></svg>